<!DOCTYPE svg PUBLIC "-//W3C//DTD SVG 1.1//EN" "http://www.w3.org/Graphics/SVG/1.1/DTD/svg11.dtd">

<svg fill="#c9c9c9" version="1.1" id="Capa_1" xmlns="http://www.w3.org/2000/svg" xmlns:xlink="http://www.w3.org/1999/xlink" width="800px" height="800px" viewBox="-46.75 -46.75 560.95 560.95" xml:space="preserve" stroke="#c9c9c9" transform="rotate(0)matrix(1, 0, 0, 1, 0, 0)">

<g id="SVGRepo_bgCarrier" stroke-width="0"/>

<g id="SVGRepo_tracerCarrier" stroke-linecap="round" stroke-linejoin="round"/>

<g id="SVGRepo_iconCarrier"> <g> <g id="Layer_7_5_"> <path d="M233.728,0C104.641,0,0,104.642,0,233.727c0,129.084,104.641,233.725,233.727,233.725 c129.083,0,233.724-104.641,233.724-233.725C467.451,104.642,362.811,0,233.728,0z M64.964,250.082h-9.692 c0-52.863,19.316-101.268,51.208-138.639c2.288,2.292,4.578,4.575,6.871,6.87C83.2,153.906,64.964,199.893,64.964,250.082z M98.899,250.082h-9.695c0-43.511,15.522-83.45,41.315-114.595l6.886,6.889C113.355,171.742,98.899,209.244,98.899,250.082z M233.728,326.421c-51.194,0-92.698-41.492-92.698-92.694c0-51.199,41.503-92.696,92.698-92.696 c51.199,0,92.693,41.497,92.693,92.696C326.421,284.929,284.927,326.421,233.728,326.421z M333.519,333.59 c24.055-29.363,38.514-66.885,38.514-107.708h9.689c0,43.51-15.524,83.453-41.313,114.597L333.519,333.59z M364.446,364.523 c-2.293-2.288-4.572-4.575-6.873-6.868c30.14-35.606,48.372-81.593,48.372-131.774h9.697 C415.652,278.749,396.337,327.156,364.446,364.523z M265.021,233.727c0,17.28-14.009,31.293-31.293,31.293 c-17.287,0-31.296-14.013-31.296-31.293c0-17.287,14.009-31.295,31.296-31.295C251.012,202.431,265.021,216.439,265.021,233.727z"/> </g> </g> </g>

</svg>